PathFileType	4	(X/Y/Z)	E:\Marcel_BSc\Ayumi_22_01_2025\22-01-2025\conv_dl_1.trc
DataRate	CameraRate	NumFrames	NumMarkers	Units	OrigDataRate	OrigDataStartFrame	OrigNumFrames
200.0	200.0	6	47	mm	200.0	306	2445	
Frame#	Time	FHD			LBHD			RBHD			RBAR			LBAR			RSACR			LSACR			USACR			C7			CLAV			T10			RSHO			LSHO			LTHI1			LTHI3			LTHI2			LTIB1			LTIB2			LTIB3			LMMAL			LLMAL			LHEE			LMT1			LMT5			LMT3			RTHI1			RTHI2			RTHI3			RTIB1			RTIB3			RTIB2			RLMAL			RMMAL			RHEE			RMT5			RMT1			RMT3			LDUPA			LMUPA			LUUPA			LRAD			RUL			RRAD			RUFIN			RMUPA			RDUPA			RUUPA			
		X1	Y1	Z1	X2	Y2	Z2	X3	Y3	Z3	X4	Y4	Z4	X5	Y5	Z5	X6	Y6	Z6	X7	Y7	Z7	X8	Y8	Z8	X9	Y9	Z9	X10	Y10	Z10	X11	Y11	Z11	X12	Y12	Z12	X13	Y13	Z13	X14	Y14	Z14	X15	Y15	Z15	X16	Y16	Z16	X17	Y17	Z17	X18	Y18	Z18	X19	Y19	Z19	X20	Y20	Z20	X21	Y21	Z21	X22	Y22	Z22	X23	Y23	Z23	X24	Y24	Z24	X25	Y25	Z25	X26	Y26	Z26	X27	Y27	Z27	X28	Y28	Z28	X29	Y29	Z29	X30	Y30	Z30	X31	Y31	Z31	X32	Y32	Z32	X33	Y33	Z33	X34	Y34	Z34	X35	Y35	Z35	X36	Y36	Z36	X37	Y37	Z37	X38	Y38	Z38	X39	Y39	Z39	X40	Y40	Z40	X41	Y41	Z41	X42	Y42	Z42	X43	Y43	Z43	X44	Y44	Z44	X45	Y45	Z45	X46	Y46	Z46	X47	Y47	Z47	
306	1.52	103.28673	1611.2086	-604.69122	121.43484	1594.6554	-544.65399	142.81731	1581.8594	-676.06335	156.33669	240.3119	-1714.0673	180.97057	251.35844	508.78018	320.65396	965.25549	-653.81494	320.33469	967.5108	-581.47308	313.20953	976.55554	-618.12262	300.1781	1401.3978	-601.9549	162.3119	1340.3882	-613.95367	313.90454	1123.3652	-611.12695	239.67549	1415.4729	-745.55103	228.61067	1405.1119	-466.22629	249.4277	612.11035	-431.10446	269.9407	550.01703	-445.03061	219.25331	552.46179	-439.258	249.57295	239.4962	-436.68466	299.84879	235.58441	-439.203	268.18839	178.744	-445.26175	262.51031	74.55999	-531.65338	278.23956	72.115738	-458.6488	319.73096	36.447128	-498.74481	121.87348	43.775726	-492.01028	146.8638	28.025085	-414.9476	122.07935	40.817238	-456.9129	249.70384	613.77423	-789.40869	220.87578	555.44934	-782.03198	271.97238	552.83105	-781.59509	249.3699	280.94699	-797.00104	268.98825	217.99533	-791.44281	299.63696	276.35672	-798.06146	272.95172	74.415604	-775.65668	246.08147	79.178246	-701.91284	317.3306	31.706211	-735.28522	138.57874	33.711304	-805.6521	116.48336	41.813126	-743.06812	120.27099	39.948391	-774.2063	306.09714	1327.6927	-280.39166	279.65665	1369.8602	-283.13986	289.96368	1372.5486	-344.35919	236.91469	1359.449	48.957565	309.50021	1360.1649	-1245.6831	254.67795	1387.8665	-1249.7144	259.97836	1393.9554	-1321.153	309.98151	1366.7814	-851.14789	313.76685	1356.8778	-912.27509	323.40253	1319.5129	-843.24774
307	1.525	103.24258	1611.2018	-604.70496	121.39693	1594.6426	-544.6618	142.78032	1581.863	-676.06219	156.336	240.28339	-1714.0946	180.96635	251.35303	508.77649	320.61237	965.27271	-653.80212	320.26648	967.52869	-581.46088	313.1279	976.61377	-618.10712	300.13876	1401.418	-601.95801	162.26636	1340.4072	-613.95447	313.8663	1123.3508	-611.13641	239.66743	1415.4625	-745.56781	228.56407	1405.1083	-466.24899	249.37488	612.10876	-431.12576	269.91479	550.02197	-445.05099	219.22501	552.44891	-439.25424	249.57672	239.50301	-436.6799	299.84433	235.6066	-439.22086	268.14816	178.74344	-445.25848	262.50583	74.561737	-531.65906	278.38632	72.203842	-458.58517	319.7439	36.451611	-498.73538	121.86591	43.776264	-492.01385	146.86774	28.022707	-414.95218	122.07001	40.836193	-456.91827	249.70378	613.74072	-789.4071	220.86858	555.40631	-782.05371	271.94031	552.84253	-781.62793	249.05809	280.7818	-797.10767	268.97763	218.01129	-791.46649	299.63757	276.37131	-798.06696	272.95502	74.410675	-775.65576	246.09207	79.181015	-701.92792	317.33054	31.690617	-735.28387	138.56677	33.725243	-805.67004	116.47998	41.808796	-743.0564	120.26829	39.948315	-774.20801	306.04495	1327.6953	-280.39655	279.62921	1369.8411	-283.15189	289.93185	1372.5477	-344.36862	236.86263	1359.5015	48.990105	309.52252	1360.1523	-1245.6936	254.70212	1387.8494	-1249.7224	259.99799	1393.9662	-1321.1665	309.9635	1366.7571	-851.15894	313.74481	1356.8569	-912.27899	323.36023	1319.4774	-843.24927
308	1.53	103.2121	1611.2062	-604.70416	121.38091	1594.6433	-544.64435	142.74467	1581.8691	-676.05768	156.33186	240.28687	-1714.0922	180.94655	251.35262	508.7847	320.58899	965.26434	-653.80731	320.22763	967.52386	-581.46759	313.08569	976.63562	-618.11487	300.11072	1401.3981	-601.96521	162.22737	1340.4277	-613.95087	313.8295	1123.3466	-611.14111	239.63191	1415.4923	-745.57361	228.50925	1405.1063	-466.25873	249.35379	612.12152	-431.13965	269.62366	550.36176	-444.77646	219.20682	552.46014	-439.26331	249.56999	239.5103	-436.63983	299.80884	235.61006	-439.21048	268.09171	178.7634	-445.27975	262.51529	74.561081	-531.6449	278.31494	72.14875	-458.63501	319.73111	36.477646	-498.72144	121.87274	43.775803	-492.01553	146.8573	28.02932	-414.96194	122.07088	40.856087	-456.91788	249.65848	613.78131	-789.43127	220.84802	555.44452	-782.04004	271.92639	552.84937	-781.62811	249.06337	280.77908	-797.10107	268.97177	218.04564	-791.46674	299.62347	276.39575	-798.06714	272.96103	74.393829	-775.65442	246.0764	79.177917	-701.93353	317.32803	31.704411	-735.29297	138.55588	33.751934	-805.68024	116.48718	41.803616	-743.05133	120.27137	39.948643	-774.19818	305.99295	1327.702	-280.39114	279.58633	1369.8402	-283.16745	289.86359	1372.5929	-344.34659	236.67459	1359.5511	48.659405	309.54245	1360.1229	-1245.7163	254.71365	1387.8373	-1249.7325	260.02222	1393.9742	-1321.1766	309.9415	1366.7361	-851.1637	313.73407	1356.8345	-912.27264	323.31351	1319.4536	-843.25299
309	1.535	103.18236	1611.2231	-604.67944	121.31127	1594.6592	-544.65668	142.69704	1581.8928	-676.05255	156.33939	240.23842	-1714.106	180.96867	251.34906	508.77112	320.54184	965.28479	-653.81323	320.13934	967.58185	-581.46613	313.04391	976.65704	-618.11676	300.06128	1401.406	-601.9635	162.19128	1340.443	-613.97174	313.79016	1123.3367	-611.14941	239.60664	1415.5011	-745.59326	228.44212	1405.0948	-466.27246	249.31367	612.11298	-431.16132	269.8768	550.01923	-445.07806	219.17203	552.45502	-439.27908	249.54567	239.49576	-436.65909	299.81458	235.59131	-439.20963	268.14377	178.73018	-445.26263	262.51083	74.556931	-531.66772	278.3324	72.162277	-458.63	319.74377	36.432095	-498.74539	121.87529	43.77132	-492.02005	146.85475	28.030867	-414.95483	122.07288	40.860352	-456.9213	249.68228	613.73419	-789.42743	220.80415	555.48224	-782.02838	271.91769	552.84827	-781.638	249.06369	280.74725	-797.10095	268.98505	218.00081	-791.48193	299.62573	276.3996	-798.06311	272.96576	74.40789	-775.66107	246.08144	79.180641	-701.92621	317.31909	31.698853	-735.28125	138.56221	33.737705	-805.67236	116.48643	41.809704	-743.05524	120.26279	39.950375	-774.20123	305.94119	1327.6995	-280.3999	279.52368	1369.848	-283.16812	289.73245	1372.7722	-344.24487	236.78491	1359.4761	48.971462	309.55618	1360.1029	-1245.7195	254.73932	1387.8101	-1249.7531	260.02719	1393.9911	-1321.1779	309.92508	1366.7111	-851.16388	313.7153	1356.799	-912.28192	323.2829	1319.4156	-843.25507
310	1.54	103.15417	1611.2188	-604.6969	121.28011	1594.6663	-544.65027	142.65143	1581.8948	-676.05151	156.2534	240.563	-1713.9631	180.9718	251.34418	508.77756	320.49707	965.29163	-653.83203	320.03326	967.64691	-581.44293	312.9584	976.72943	-618.09296	300.0332	1401.3877	-601.96997	162.14731	1340.4613	-613.98749	313.76447	1123.3347	-611.15338	239.61171	1415.4738	-745.61835	228.39868	1405.1095	-466.28339	249.29587	612.12396	-431.16708	269.85922	550.02179	-445.0881	219.13222	552.44611	-439.29147	249.53296	239.50427	-436.62708	299.74429	235.58504	-439.21579	268.13388	178.73291	-445.26477	262.51437	74.576447	-531.66559	278.37814	72.205009	-458.61316	319.74844	36.462635	-498.73468	121.86364	43.782776	-492.0166	146.83792	28.056164	-414.95984	122.07288	40.834297	-456.91962	249.66306	613.76337	-789.44824	220.81454	555.4826	-782.05164	271.90823	552.84094	-781.64709	248.87224	281.08423	-796.92993	268.98557	218.02553	-791.49585	299.62823	276.39761	-798.07532	272.97949	74.402397	-775.65649	246.08575	79.171089	-701.93365	317.3269	31.699955	-735.28784	138.58098	33.719357	-805.67798	116.48444	41.81036	-743.05713	120.26339	39.956394	-774.19611	305.89194	1327.6877	-280.40854	279.49835	1369.8434	-283.16913	289.6951	1372.7827	-344.25034	236.72353	1359.453	48.949615	309.56274	1360.0854	-1245.7274	254.76044	1387.7535	-1249.777	260.05646	1393.9453	-1321.204	309.90991	1366.6837	-851.17285	313.71597	1356.77	-912.27954	323.24374	1319.3846	-843.26941
311	1.545	103.12114	1611.2223	-604.6698	121.21903	1594.6935	-544.64844	142.60092	1581.9077	-676.04736	156.30626	240.37457	-1714.0452	180.96541	251.35043	508.78094	320.46793	965.28741	-653.84204	319.98737	967.66095	-581.45251	312.91196	976.75201	-618.09399	299.99203	1401.3894	-601.98077	162.10896	1340.4819	-613.99969	313.74649	1123.3301	-611.14478	239.58867	1415.4803	-745.63513	228.36465	1405.1191	-466.28812	249.26949	612.11292	-431.18173	269.82657	550.00018	-445.10629	219.10133	552.4386	-439.32358	249.53854	239.48961	-436.68387	299.76779	235.5986	-439.22333	267.92105	178.59808	-445.17172	262.50043	74.569542	-531.66174	278.30402	72.163193	-458.6611	319.74146	36.452198	-498.74228	121.86145	43.78231	-492.02466	146.84439	28.041746	-414.96411	122.07761	40.81382	-456.92099	249.64932	613.76654	-789.45679	220.79454	555.49103	-782.03796	271.87817	552.86652	-781.67499	248.99684	280.81601	-797.09558	268.98166	218.02907	-791.50012	299.62253	276.40601	-798.07068	272.98447	74.401993	-775.65015	246.07077	79.169487	-701.93018	317.3251	31.708221	-735.28656	138.576	33.717907	-805.66669	116.47992	41.814285	-743.06659	120.25593	39.9533	-774.20349	305.84125	1327.6755	-280.41306	279.41418	1369.8309	-283.18259	289.76321	1372.5662	-344.35254	236.66254	1359.4526	48.946316	309.57111	1360.0627	-1245.7395	254.78137	1387.7423	-1249.7936	260.05371	1393.9401	-1321.2113	310.1022	1366.4967	-851.1062	313.68701	1356.7505	-912.28656	323.20401	1319.3724	-843.27155
